<?xml version="1.0"?>
<svg xmlns="http://www.w3.org/2000/svg" height="512px" viewBox="-61 0 512 512" width="512px" class=""><g><path d="m52.652344 512h117.164062v-57.757812h-117.164062zm15-42.757812h87.164062v27.757812h-87.164062zm0 0" data-original="#000000" class="active-path" data-old_color="#0AFF00" fill="#1CDA15"/><path d="m220.238281 512h117.160157v-57.757812h-117.160157zm15-42.757812h87.160157v27.757812h-87.160157zm0 0" data-original="#000000" class="active-path" data-old_color="#0AFF00" fill="#1CDA15"/><path d="m241.148438 224.328125h15.0625l15.386718-15.386719v-101.792968l-19.097656-19.09375h-26.078125l11.820313-11.824219v-33.015625c0-23.828125-19.386719-43.214844-43.214844-43.214844s-43.214844 19.386719-43.214844 43.214844v33.019531l11.820312 11.820313h-26.078124l-19.097657 19.097656v101.792968l15.386719 15.382813h15.0625v117.808594h38.898438l7.222656-7.222657 7.21875 7.222657h38.902344zm-37.847657-51.074219-6.269531 7.761719h-4.015625l-6.269531-7.761719 5.355468-70.199218h5.84375zm-36.488281-130.039062c0-15.558594 12.65625-28.214844 28.214844-28.214844s28.214844 12.65625 28.214844 28.214844v26.804687l-18.035157 18.035157h-20.359375l-18.035156-18.035157zm59.335938 283.921875h-17.6875l-5.910157-5.910157c0-107.335937.015625-92.441406-.046875-102.441406h-15v102.441406l-5.910156 5.910157h-17.6875v-192.253907h-15v74.445313h-8.847656l-6.601563-6.597656v-89.367188l10.3125-10.308593h33.289063l-5.71875 74.992187 14.507812 17.96875h18.355469l14.507813-17.96875-5.71875-74.992187h33.292968l10.3125 10.308593v89.367188l-6.597656 6.597656h-8.851562v-74.445313h-15zm0 0" data-original="#000000" class="active-path" data-old_color="#0AFF00" fill="#1CDA15"/><path d="m79.609375 309.414062v-59.644531l-22.011719-22.015625h-6.296875l-17.621093-17.621094h-33.679688v159.96875l76.945312 76.945313 10.605469-10.605469-72.550781-72.554687v-138.753907h12.46875l13.226562 13.226563v82.234375l12.90625 12.902344-.480468.480468v18.78125l41.578125 41.578126 10.605469-10.609376-37.183594-37.183593v-6.355469l15.773437-15.773438h6.355469l64.5625 64.566407v52.761719h15v-58.976563l-73.351562-73.351563zm-23.914063 4.964844v-67.3125l8.914063 8.914063v66.507812l-.402344.402344zm0 0" data-original="#000000" class="active-path" data-old_color="#0AFF00" fill="#1CDA15"/><path d="m356.371094 210.132812-17.617188 17.621094h-6.296875l-22.015625 22.015625v59.644531h-16.851562l-73.351563 73.355469v58.976563h15v-52.765625l64.5625-64.566407h6.355469l15.773438 15.773438v6.355469l-37.183594 37.183593 10.605468 10.609376 41.578126-41.578126v-18.78125l-.480469-.480468 12.90625-12.902344v-82.234375l13.226562-13.226563h12.46875v138.753907l-72.550781 72.554687 10.605469 10.605469 76.945312-76.945313v-159.96875zm-30.929688 112.355469v-66.507812l8.917969-8.914063v67.3125l-8.511719 8.511719zm0 0" data-original="#000000" class="active-path" data-old_color="#0AFF00" fill="#1CDA15"/><path d="m204.421875 78.65625-10.605469-10.605469 7.226563-7.226562v-17.609375c0-3.316406-2.695313-6.015625-6.015625-6.015625v-15c11.589844 0 21.015625 9.425781 21.015625 21.015625v23.820312zm0 0" data-original="#000000" class="active-path" data-old_color="#0AFF00" fill="#1CDA15"/><path d="m305.582031 419.21875-10.605469-10.605469 23.3125-23.3125 10.605469 10.605469zm30.382813-30.382812-10.605469-10.605469 10.605469-10.605469 10.605468 10.605469zm17.679687-17.675782-10.609375-10.609375 10.605469-10.605469 10.609375 10.609376zm0 0" data-original="#000000" class="active-path" data-old_color="#0AFF00" fill="#1CDA15"/><path d="m314.503906 490.621094h-15v-15h15zm-25 0h-15v-15h15zm-25 0h-21.367187v-15h21.367187zm0 0" data-original="#000000" class="active-path" data-old_color="#0AFF00" fill="#1CDA15"/></g> </svg>
